
	<svg xmlns="http://www.w3.org/2000/svg" xmlns:xlink="http://www.w3.org/1999/xlink" version="1.1" width="130" height="130" viewBox="0 0 100 100">


		<defs>
			<linearGradient id="Gradient_2" gradientUnits="userSpaceOnUse" x1="15" y1="9" x2="85" y2="9" spreadMethod="pad">
<stop offset="0%" stop-color="#FFFFFF" stop-opacity="0"/>
<stop offset="50%" stop-color="#FFFFFF" stop-opacity="0.5"/>
<stop offset="100%" stop-color="#FFFFFF" stop-opacity="0"/>
</linearGradient><linearGradient id="Gradient_3" gradientUnits="userSpaceOnUse" x1="50" y1="60" x2="50" y2="0" spreadMethod="pad">
<stop offset="0%" stop-color="#FFFFFF" stop-opacity="0.1"/>
<stop offset="100%" stop-color="#FFFFFF" stop-opacity="0.4"/>
</linearGradient><linearGradient id="Gradient_4" gradientUnits="userSpaceOnUse" x1="59" y1="77" x2="59" y2="0" spreadMethod="pad">
<stop offset="0%" stop-color="#FFFFFF" stop-opacity="0.1"/>
<stop offset="100%" stop-color="#FFFFFF" stop-opacity="0.4"/>
</linearGradient><linearGradient id="Gradient_5" gradientUnits="userSpaceOnUse" x1="41" y1="78" x2="41" y2="0" spreadMethod="pad">
<stop offset="0%" stop-color="#FFFFFF" stop-opacity="0.1"/>
<stop offset="100%" stop-color="#FFFFFF" stop-opacity="0.4"/>
</linearGradient><g id="background">
<path fill="url(#background-gradient)" stroke="none" d=" M 96.1 30.55 Q 92.25 21.55 85.35 14.65 78.45 7.75 69.45 3.9 60.15 0 50 0 39.85 0 30.55 3.9 21.55 7.75 14.65 14.65 7.75 21.55 3.9 30.55 0 39.85 0 50 0 60.15 3.9 69.45 7.75 78.45 14.65 85.35 21.55 92.25 30.55 96.1 39.85 100 50 100 60.15 100 69.45 96.1 78.45 92.25 85.35 85.35 92.25 78.45 96.1 69.45 100 60.15 100 50 100 39.85 96.1 30.55 Z"/>
</g><g id="middle-1">
<path fill="#FFFFFF" fill-opacity="0.4" stroke="none" d=" M 60.45 83.15 L 60.45 98.9 Q 65.4 97.85 70.1 95.8 L 70.1 90.65 Q 70.1 87.4 67.8 85.15 65.55 82.9 62.4 82.9 61.35 82.9 60.45 83.15 Z"/>

<path fill="#FFFFFF" fill-opacity="0.2" stroke="none" d=" M 52.75 69.4 Q 49.5 69.4 47.25 71.65 45 73.85 45 77.1 L 45 99.75 Q 47.35 100 50 100 55.2 100 60.45 98.9 L 60.45 83.15 60.45 77.1 Q 60.45 73.85 58.15 71.65 55.9 69.4 52.75 69.4 M 9.35 54.4 Q 6.1 54.4 3.85 56.7 1.6 58.9 1.6 62.15 L 1.6 62.4 Q 3.5 69.75 7.5 76.25 11.4 82.6 17.05 87.6 L 17.05 62.15 Q 17.05 58.9 14.75 56.7 12.5 54.4 9.35 54.4 M 86.5 64.05 Q 83.3 64.05 81.05 66.35 78.8 68.55 78.8 71.8 L 78.8 90.9 Q 88.6 84 94.2 73.35 L 94.2 71.8 Q 94.2 68.55 91.95 66.35 89.7 64.05 86.5 64.05 Z"/>

<path fill="#FFFFFF" fill-opacity="0.30196078431372547" stroke="none" d=" M 27.95 75.5 Q 25.7 77.75 25.7 81 L 25.7 93.7 Q 33 97.75 41.15 99.2 L 41.15 81 Q 41.15 77.75 38.85 75.5 36.6 73.25 33.45 73.25 30.2 73.25 27.95 75.5 Z"/>

<path fill="url(#Gradient_2)" stroke="none" d=" M 69.25 5.15 Q 60.1 1 50 1 39.9 1 30.75 5.15 21.9 9.25 15.45 16.5 22.5 11 31.2 7.95 40.25 4.85 50 4.85 59.75 4.85 68.8 7.95 77.5 11 84.55 16.5 78.05 9.25 69.25 5.15 Z"/>
</g><mask id="mask">
<path fill="#FFFFFF" stroke="none" d=" M 96.1 30.55 Q 92.25 21.55 85.35 14.65 78.45 7.75 69.45 3.9 60.15 0 50 0 39.85 0 30.55 3.9 21.55 7.75 14.65 14.65 7.75 21.55 3.9 30.55 0 39.85 0 50 0 60.15 3.9 69.45 7.75 78.45 14.65 85.35 21.55 92.25 30.55 96.1 39.85 100 50 100 60.15 100 69.45 96.1 78.45 92.25 85.35 85.35 92.25 78.45 96.1 69.45 100 60.15 100 50 100 39.85 96.1 30.55 Z"/>
</mask><g id="gloss-top">
<path fill="url(#Gradient_3)" stroke="none" d=" M 99.65 44 Q 98.55 34.85 94.2 26.7 90.05 18.7 83.3 12.7 76.5 6.65 68.15 3.4 59.4 0 50 0 40.55 0 31.9 3.4 23.45 6.65 16.7 12.7 9.95 18.7 5.8 26.7 1.5 34.85 0.35 44 10.25 51.65 22.8 55.8 35.8 60.1 50 60.1 64.2 60.1 77.2 55.8 89.75 51.65 99.65 44 Z"/>
</g><g id="gloss-right">
<path fill="url(#Gradient_4)" stroke="none" d=" M 96.05 30.55 Q 92.25 21.55 85.35 14.65 78.45 7.75 69.45 3.95 60.15 0 50 0 41.15 0 32.9 3 24.9 5.95 18.3 11.35 19.8 25.1 26.05 37.4 32.15 49.3 42 58.35 51.85 67.45 64.15 72.4 76.9 77.5 90.75 77.5 L 91.75 77.45 Q 95.75 71.45 97.8 64.55 100 57.5 100 50 100 39.85 96.05 30.55 Z"/>
</g><g id="gloss-left">
<path fill="url(#Gradient_5)" stroke="none" d=" M 67.1 3 Q 58.85 0 50 0 39.85 0 30.55 3.95 21.55 7.75 14.65 14.65 7.75 21.55 3.95 30.55 0 39.85 0 50 0 57.5 2.15 64.55 4.25 71.45 8.2 77.45 L 9.25 77.5 Q 23.1 77.5 35.8 72.4 48.15 67.45 58 58.35 67.85 49.3 73.95 37.4 80.2 25.1 81.7 11.35 75.1 5.95 67.1 3 Z"/>
</g>
			
	<linearGradient id="background-gradient" x1="0" y1="0" y2="1" x2="0" >
		<stop stop-color="#f9f925" offset="0%"/>
		<stop stop-color="#f13b3b" offset="100%"/>
	</linearGradient>

			
			
			<g transform="scale(3.4482758620689653) translate(2.5 0)" id="picture"><path d="M21 7H3c-.6 0-1 .4-1 1v17c0 2.2 1.8 4 4 4h12c2.2 0 4-1.8 4-4V8c0-.6-.4-1-1-1zm-1 18c0 1.1-.9 2-2 2H6c-1.1 0-2-.9-2-2V9h16v16zm3-21h-8V2.7C15 1.2 13.8 0 12.3 0h-.6C10.2 0 9 1.2 9 2.7V4H1c-.6 0-1 .4-1 1s.4 1 1 1h22c.6 0 1-.4 1-1s-.4-1-1-1zM11 2.7c0-.4.3-.7.7-.7h.6c.4 0 .7.3.7.7V4h-2V2.7z M9.5 24c.3 0 .5-.2.5-.5v-11c0-.3-.2-.5-.5-.5s-.5.2-.5.5v11c0 .3.2.5.5.5zm5 0c.3 0 .5-.2.5-.5v-11c0-.3-.2-.5-.5-.5s-.5.2-.5.5v11c0 .3.2.5.5.5z"/></g>
			
	<linearGradient id="picture-gradient" x1="0" y1="0" y2="1" x2="0" >
		<stop stop-color="#ffffff" offset="0%"/>
		<stop stop-color="#ffffff" offset="100%"/>
	</linearGradient>

		</defs>

		

			<use xlink:href="#background" fill="url(#background-gradient)" />

		<use xlink:href="#middle-1" />

			<g mask="url(#mask)">
				<g transform="
				        translate(
                                50 50
)
                            translate(0 0)  scale(0.7150000000000001)  
                            translate(
                                -50 -50
)">
						<use xlink:href="#picture" fill="url(#picture-gradient)"  />
				</g>
			</g>

		

			<use xlink:href="#gloss-top" opacity="1" />


	</svg>
